<mxfile host="Electron" modified="2023-06-23T12:46:21.525Z" agent="Mozilla/5.0 (Windows NT 10.0; Win64; x64) AppleWebKit/537.36 (KHTML, like Gecko) draw.io/21.2.8 Chrome/112.0.5615.165 Electron/24.2.0 Safari/537.36" etag="mitLTRTgpQcwiHiqHmN8" version="21.2.8" type="device">
  <diagram name="Page-1" id="1PqbhJRjo_kHHZn_KNGG">
    <mxGraphModel dx="1036" dy="615" grid="1" gridSize="10" guides="1" tooltips="1" connect="1" arrows="1" fold="1" page="1" pageScale="1" pageWidth="850" pageHeight="1100" math="0" shadow="0">
      <root>
        <mxCell id="0" />
        <mxCell id="1" parent="0" />
        <mxCell id="-fn_32F01CiFZGLoMzf9-8" value="" style="rounded=1;whiteSpace=wrap;html=1;arcSize=3;fontSize=22;fontFamily=Comic Sans MS;fontStyle=1;opacity=60;fillColor=#f5f5f5;gradientColor=#b3b3b3;strokeColor=#B3B3B3;fontColor=#FFFFFF;" parent="1" vertex="1">
          <mxGeometry x="80" y="760" width="640" height="520" as="geometry" />
        </mxCell>
        <mxCell id="-fn_32F01CiFZGLoMzf9-9" value="" style="rounded=1;whiteSpace=wrap;html=1;fontSize=22;fontFamily=Comic Sans MS;fontStyle=1;fillColor=#dae8fc;gradientColor=#7ea6e0;strokeColor=#6c8ebf;fontColor=#FFFFFF;opacity=60;" parent="1" vertex="1">
          <mxGeometry x="100" y="780" width="120" height="400" as="geometry" />
        </mxCell>
        <mxCell id="-fn_32F01CiFZGLoMzf9-10" value="&lt;font style=&quot;font-size: 22px;&quot;&gt;&lt;span style=&quot;font-size: 22px;&quot;&gt;MICROCONTROLLER&lt;/span&gt;&lt;/font&gt;" style="rounded=1;whiteSpace=wrap;html=1;direction=south;fontSize=22;fontFamily=Comic Sans MS;fontStyle=1;fillColor=#e6d0de;gradientColor=#d5739d;strokeColor=#D5739D;gradientDirection=east;fontColor=#FFFFFF;" parent="1" vertex="1">
          <mxGeometry x="230" y="1200" width="480" height="60" as="geometry" />
        </mxCell>
        <mxCell id="-fn_32F01CiFZGLoMzf9-11" value="" style="rounded=1;whiteSpace=wrap;html=1;direction=south;fontSize=22;fontFamily=Comic Sans MS;fontStyle=1;fillColor=#f8cecc;gradientColor=#ea6b66;strokeColor=#EA6B66;gradientDirection=east;fontColor=#FFFFFF;opacity=60;" parent="1" vertex="1">
          <mxGeometry x="230" y="1090" width="480" height="90" as="geometry" />
        </mxCell>
        <mxCell id="-fn_32F01CiFZGLoMzf9-12" value="" style="rounded=1;whiteSpace=wrap;html=1;direction=south;fontSize=22;fontFamily=Comic Sans MS;fontStyle=1;fillColor=#fff2cc;gradientColor=#ffd966;strokeColor=#FFD966;gradientDirection=east;fontColor=#FFFFFF;opacity=60;" parent="1" vertex="1">
          <mxGeometry x="230" y="975" width="480" height="100" as="geometry" />
        </mxCell>
        <mxCell id="-fn_32F01CiFZGLoMzf9-13" value="&lt;font style=&quot;font-size: 22px;&quot;&gt;&lt;span style=&quot;font-size: 22px;&quot;&gt;APP&lt;/span&gt;&lt;/font&gt;" style="rounded=1;whiteSpace=wrap;html=1;direction=south;fontSize=22;fontFamily=Comic Sans MS;fontStyle=1;fillColor=#d5e8d4;gradientColor=#97d077;strokeColor=#97D077;gradientDirection=east;fontColor=#FFFFFF;" parent="1" vertex="1">
          <mxGeometry x="230" y="780" width="480" height="90" as="geometry" />
        </mxCell>
        <mxCell id="-fn_32F01CiFZGLoMzf9-14" value="COMMON" style="rounded=1;whiteSpace=wrap;html=1;direction=south;fillColor=#dae8fc;gradientColor=#7ea6e0;strokeColor=#7EA6E0;gradientDirection=east;fontFamily=Comic Sans MS;fontColor=#FFFFFF;fontStyle=1" parent="1" vertex="1">
          <mxGeometry x="120" y="800" width="80" height="160" as="geometry" />
        </mxCell>
        <mxCell id="-fn_32F01CiFZGLoMzf9-15" value="BITMATH" style="rounded=1;whiteSpace=wrap;html=1;direction=south;fillColor=#dae8fc;gradientColor=#7ea6e0;strokeColor=#7EA6E0;gradientDirection=east;fontFamily=Comic Sans MS;fontColor=#FFFFFF;fontStyle=1" parent="1" vertex="1">
          <mxGeometry x="120" y="999" width="80" height="160" as="geometry" />
        </mxCell>
        <mxCell id="-fn_32F01CiFZGLoMzf9-23" value="&lt;font size=&quot;1&quot; face=&quot;Comic Sans MS&quot; color=&quot;#ffffff&quot;&gt;&lt;b style=&quot;font-size: 20px;&quot;&gt;GPIO&lt;/b&gt;&lt;/font&gt;" style="rounded=1;whiteSpace=wrap;html=1;fillColor=#f8cecc;gradientColor=#ea6b66;strokeColor=#EA6B66;" parent="1" vertex="1">
          <mxGeometry x="240" y="1105" width="221" height="60" as="geometry" />
        </mxCell>
        <mxCell id="eynTA4RFRhb1cRIujfVp-1" value="" style="rounded=1;whiteSpace=wrap;html=1;arcSize=3;fontSize=22;fontFamily=Comic Sans MS;fontStyle=1;opacity=60;fillColor=#f5f5f5;gradientColor=#B3B3B3;strokeColor=#B3B3B3;fontColor=#FFFFFF;" parent="1" vertex="1">
          <mxGeometry x="100" y="80" width="650" height="520" as="geometry" />
        </mxCell>
        <mxCell id="eynTA4RFRhb1cRIujfVp-2" value="&lt;font style=&quot;font-size: 22px;&quot;&gt;&lt;span style=&quot;font-size: 22px;&quot;&gt;LIB&lt;/span&gt;&lt;/font&gt;" style="rounded=1;whiteSpace=wrap;html=1;fontSize=22;fontFamily=Comic Sans MS;fontStyle=1;fillColor=#dae8fc;gradientColor=#7ea6e0;strokeColor=none;fontColor=#FFFFFF;" parent="1" vertex="1">
          <mxGeometry x="120" y="100" width="120" height="400" as="geometry" />
        </mxCell>
        <mxCell id="eynTA4RFRhb1cRIujfVp-3" value="&lt;font style=&quot;font-size: 22px;&quot;&gt;&lt;span style=&quot;font-size: 22px;&quot;&gt;MICROCONTROLLER&lt;/span&gt;&lt;/font&gt;" style="rounded=1;whiteSpace=wrap;html=1;direction=south;fontSize=22;fontFamily=Comic Sans MS;fontStyle=1;fillColor=#e6d0de;gradientColor=#d5739d;strokeColor=none;gradientDirection=east;fontColor=#FFFFFF;" parent="1" vertex="1">
          <mxGeometry x="250" y="510" width="480" height="70" as="geometry" />
        </mxCell>
        <mxCell id="eynTA4RFRhb1cRIujfVp-4" value="&lt;font style=&quot;font-size: 22px;&quot;&gt;&lt;span style=&quot;font-size: 22px;&quot;&gt;MCAL&lt;/span&gt;&lt;/font&gt;" style="rounded=1;whiteSpace=wrap;html=1;direction=south;fontSize=22;fontFamily=Comic Sans MS;fontStyle=1;fillColor=#f8cecc;gradientColor=#ea6b66;strokeColor=none;gradientDirection=east;fontColor=#FFFFFF;" parent="1" vertex="1">
          <mxGeometry x="250" y="410" width="480" height="80" as="geometry" />
        </mxCell>
        <mxCell id="eynTA4RFRhb1cRIujfVp-5" value="&lt;font style=&quot;font-size: 22px;&quot;&gt;&lt;span style=&quot;font-size: 22px;&quot;&gt;SERV&lt;/span&gt;&lt;/font&gt;" style="rounded=1;whiteSpace=wrap;html=1;direction=south;fontSize=22;fontFamily=Comic Sans MS;fontStyle=1;fillColor=#99FFFF;gradientColor=#009999;strokeColor=none;gradientDirection=east;fontColor=#FFFFFF;" parent="1" vertex="1">
          <mxGeometry x="250" y="230" width="480" height="80" as="geometry" />
        </mxCell>
        <mxCell id="eynTA4RFRhb1cRIujfVp-6" value="&lt;font style=&quot;font-size: 22px;&quot;&gt;&lt;span style=&quot;font-size: 22px;&quot;&gt;APP&lt;/span&gt;&lt;/font&gt;" style="rounded=1;whiteSpace=wrap;html=1;direction=south;fontSize=22;fontFamily=Comic Sans MS;fontStyle=1;fillColor=#d5e8d4;gradientColor=#97d077;strokeColor=none;gradientDirection=east;fontColor=#FFFFFF;" parent="1" vertex="1">
          <mxGeometry x="250" y="100" width="480" height="120" as="geometry" />
        </mxCell>
        <mxCell id="eynTA4RFRhb1cRIujfVp-7" value="&lt;font style=&quot;font-size: 22px;&quot;&gt;&lt;span style=&quot;font-size: 22px;&quot;&gt;ECUAL&lt;/span&gt;&lt;/font&gt;" style="rounded=1;whiteSpace=wrap;html=1;direction=south;fontSize=22;fontFamily=Comic Sans MS;fontStyle=1;fillColor=#fff2cc;gradientColor=#ffd966;strokeColor=none;gradientDirection=east;fontColor=#FFFFFF;" parent="1" vertex="1">
          <mxGeometry x="250" y="320" width="480" height="80" as="geometry" />
        </mxCell>
        <mxCell id="eynTA4RFRhb1cRIujfVp-9" value="&lt;font size=&quot;1&quot; face=&quot;Comic Sans MS&quot; color=&quot;#ffffff&quot;&gt;&lt;b style=&quot;font-size: 20px;&quot;&gt;Button&lt;/b&gt;&lt;/font&gt;" style="rounded=1;whiteSpace=wrap;html=1;fillColor=#fff2cc;gradientColor=#ffd966;strokeColor=#FFD966;" parent="1" vertex="1">
          <mxGeometry x="240" y="999" width="221" height="60" as="geometry" />
        </mxCell>
        <mxCell id="eynTA4RFRhb1cRIujfVp-10" value="" style="rounded=1;whiteSpace=wrap;html=1;direction=south;fontSize=22;fontFamily=Comic Sans MS;fontStyle=1;fillColor=#99FFFF;gradientColor=#009999;strokeColor=none;gradientDirection=east;fontColor=#FFFFFF;opacity=70;" parent="1" vertex="1">
          <mxGeometry x="230" y="880" width="480" height="80" as="geometry" />
        </mxCell>
        <mxCell id="eynTA4RFRhb1cRIujfVp-11" value="PWM manager" style="rounded=1;whiteSpace=wrap;html=1;direction=south;fontSize=22;fontFamily=Comic Sans MS;fontStyle=1;fillColor=#99FFFF;gradientColor=#009999;strokeColor=#009999;gradientDirection=east;fontColor=#FFFFFF;" parent="1" vertex="1">
          <mxGeometry x="480" y="890" width="220" height="60" as="geometry" />
        </mxCell>
        <mxCell id="PKfswQjL5JbilZw5dhGH-2" value="&lt;font size=&quot;1&quot; face=&quot;Comic Sans MS&quot; color=&quot;#ffffff&quot;&gt;&lt;b style=&quot;font-size: 20px;&quot;&gt;GPT&lt;/b&gt;&lt;/font&gt;" style="rounded=1;whiteSpace=wrap;html=1;fillColor=#f8cecc;gradientColor=#ea6b66;strokeColor=#EA6B66;" vertex="1" parent="1">
          <mxGeometry x="479" y="1105" width="221" height="60" as="geometry" />
        </mxCell>
      </root>
    </mxGraphModel>
  </diagram>
</mxfile>
